<?xml version="1.0" standalone="no"?><!-- Generator: Gravit.io --><svg xmlns="http://www.w3.org/2000/svg" xmlns:xlink="http://www.w3.org/1999/xlink" style="isolation:isolate" viewBox="0 0 100 125" width="100" height="125"><defs><clipPath id="_clipPath_Aui0eDaZvRGyWvip3GD7JmevG0TQZ9DB"><rect width="100" height="125"/></clipPath></defs><g clip-path="url(#_clipPath_Aui0eDaZvRGyWvip3GD7JmevG0TQZ9DB)"><path d=" M 87 81.3 L 69.1 63.4 C 78.1 51.7 77.2 34.8 66.4 24.1 C 60.5 18.2 52.9 15.3 45.2 15.3 C 37.5 15.3 29.9 18.2 24 24.1 C 12.3 35.8 12.3 54.8 24 66.5 C 29.9 72.4 37.5 75.3 45.2 75.3 C 51.6 75.3 58 73.3 63.3 69.2 L 81.3 87 C 82.1 87.8 83.1 88.2 84.2 88.2 C 85.2 88.2 86.3 87.8 87.1 87 C 88.6 85.5 88.6 82.9 87 81.3 Z  M 45.3 67.2 C 39.4 67.2 34 64.9 29.8 60.8 C 21.3 52.3 21.3 38.4 29.8 29.8 C 33.9 25.7 39.4 23.4 45.3 23.4 C 51.2 23.4 56.6 25.7 60.8 29.8 C 65 33.9 67.2 39.4 67.2 45.3 C 67.2 51.2 64.9 56.6 60.8 60.8 C 56.7 65 51.1 67.2 45.3 67.2 Z " fill="rgb(0,0,0)"/></g></svg>